<?xml version="1.0" encoding="UTF-8"?>
<!-- Generator: Adobe Illustrator 20.1.0, SVG Export Plug-In . SVG Version: 6.00 Build 0)  -->
<svg version="1.0" id="Слой_1" xmlns="http://www.w3.org/2000/svg" xmlns:xlink="http://www.w3.org/1999/xlink" x="0px" y="0px" viewBox="0 0 60 60" style="enable-background:new 0 0 60 60;" xml:space="preserve">
<style type="text/css">
	.st0{fill-rule:evenodd;clip-rule:evenodd;fill:#EEEEEE;}
	.st1{fill-rule:evenodd;clip-rule:evenodd;fill:#e31f24;}
</style>
<g>
	<g>
		<path class="st0" d="M30,0C13.4,0,0,13.4,0,30c0,16.6,13.4,30,30,30c16.6,0,30-13.4,30-30C60,13.4,46.6,0,30,0z M30,57    C15.1,57,3,44.9,3,30C3,15.1,15.1,3,30,3c14.9,0,27,12.1,27,27C57,44.9,44.9,57,30,57z"/>
	</g>
</g>
<g>
	<g>
		<path class="st1" d="M50.8,8.4l-2.1,2.1C53.8,15.4,57,22.3,57,30c0,14.9-12.1,27-27,27c-7.7,0-14.6-3.2-19.5-8.3l-2.1,2.1    C13.9,56.5,21.5,60,30,60c16.6,0,30-13.4,30-30C60,21.5,56.5,13.9,50.8,8.4z"/>
	</g>
</g>
</svg>